<?xml version="1.0" encoding="UTF-8"?>
<svg width="32px" height="32px" viewBox="0 0 32 32" version="1.1" xmlns="http://www.w3.org/2000/svg" xmlns:xlink="http://www.w3.org/1999/xlink">
    <title>icon_calDAV</title>
    <defs>
        <filter x="-23.2%" y="-30.0%" width="146.4%" height="156.0%" filterUnits="objectBoundingBox" id="filter-1">
            <feOffset dx="0" dy="1" in="SourceAlpha" result="shadowOffsetOuter1"></feOffset>
            <feGaussianBlur stdDeviation="1" in="shadowOffsetOuter1" result="shadowBlurOuter1"></feGaussianBlur>
            <feColorMatrix values="0 0 0 0 0   0 0 0 0 0   0 0 0 0 0  0 0 0 0.25 0" type="matrix" in="shadowBlurOuter1" result="shadowMatrixOuter1"></feColorMatrix>
            <feMerge>
                <feMergeNode in="shadowMatrixOuter1"></feMergeNode>
                <feMergeNode in="SourceGraphic"></feMergeNode>
            </feMerge>
        </filter>
        <linearGradient x1="50%" y1="0%" x2="50%" y2="100%" id="linearGradient-2">
            <stop stop-color="#FFFFFF" offset="0%"></stop>
            <stop stop-color="#FFFFFF" offset="100%"></stop>
        </linearGradient>
        <linearGradient x1="50%" y1="0%" x2="50%" y2="98.1704819%" id="linearGradient-3">
            <stop stop-color="#FF6F58" offset="0%"></stop>
            <stop stop-color="#DC4A5C" offset="100%"></stop>
        </linearGradient>
        <path d="M4,2 L24,2 C26.209139,2 28,3.790861 28,6 L28,8 L28,8 L0,8 L0,6 C-2.705415e-16,3.790861 1.790861,2 4,2 Z" id="path-4"></path>
        <filter x="-1.8%" y="-8.3%" width="103.6%" height="133.3%" filterUnits="objectBoundingBox" id="filter-5">
            <feOffset dx="0" dy="1" in="SourceAlpha" result="shadowOffsetOuter1"></feOffset>
            <feColorMatrix values="0 0 0 0 0   0 0 0 0 0   0 0 0 0 0  0 0 0 0.0524458452 0" type="matrix" in="shadowOffsetOuter1"></feColorMatrix>
        </filter>
        <linearGradient x1="52.6133911%" y1="35.6897333%" x2="68.082024%" y2="63.2009385%" id="linearGradient-6">
            <stop stop-color="#D2D2D2" offset="0%"></stop>
            <stop stop-color="#E6E6E6" offset="100%"></stop>
        </linearGradient>
    </defs>
    <g id="icon_calDAV" stroke="none" stroke-width="1" fill="none" fill-rule="evenodd">
        <rect id="矩形备份-12" x="0" y="0" width="32" height="32"></rect>
        <g id="编组备份-3" filter="url(#filter-1)" transform="translate(16.000000, 15.500000) rotate(-360.000000) translate(-16.000000, -15.500000) translate(2.000000, 3.000000)">
            <rect id="矩形" fill="url(#linearGradient-2)" x="0" y="2" width="28" height="23" rx="4"></rect>
            <g id="矩形">
                <use fill="black" fill-opacity="1" filter="url(#filter-5)" xlink:href="#path-4"></use>
                <use fill="url(#linearGradient-3)" fill-rule="evenodd" xlink:href="#path-4"></use>
            </g>
            <path d="M4,19 C4.82842712,19 5.5,19.6715729 5.5,20.5 C5.5,21.3284271 4.82842712,22 4,22 C3.17157288,22 2.5,21.3284271 2.5,20.5 C2.5,19.6715729 3.17157288,19 4,19 Z M9,19 C9.82842712,19 10.5,19.6715729 10.5,20.5 C10.5,21.3284271 9.82842712,22 9,22 C8.17157288,22 7.5,21.3284271 7.5,20.5 C7.5,19.6715729 8.17157288,19 9,19 Z M14,19 C14.8284271,19 15.5,19.6715729 15.5,20.5 C15.5,21.3284271 14.8284271,22 14,22 C13.1715729,22 12.5,21.3284271 12.5,20.5 C12.5,19.6715729 13.1715729,19 14,19 Z M19,19 C19.8284271,19 20.5,19.6715729 20.5,20.5 C20.5,21.3284271 19.8284271,22 19,22 C18.1715729,22 17.5,21.3284271 17.5,20.5 C17.5,19.6715729 18.1715729,19 19,19 Z M4,14.5 C4.82842712,14.5 5.5,15.1715729 5.5,16 C5.5,16.8284271 4.82842712,17.5 4,17.5 C3.17157288,17.5 2.5,16.8284271 2.5,16 C2.5,15.1715729 3.17157288,14.5 4,14.5 Z M9,14.5 C9.82842712,14.5 10.5,15.1715729 10.5,16 C10.5,16.8284271 9.82842712,17.5 9,17.5 C8.17157288,17.5 7.5,16.8284271 7.5,16 C7.5,15.1715729 8.17157288,14.5 9,14.5 Z M14,14.5 C14.8284271,14.5 15.5,15.1715729 15.5,16 C15.5,16.8284271 14.8284271,17.5 14,17.5 C13.1715729,17.5 12.5,16.8284271 12.5,16 C12.5,15.1715729 13.1715729,14.5 14,14.5 Z M19,14.5 C19.8284271,14.5 20.5,15.1715729 20.5,16 C20.5,16.8284271 19.8284271,17.5 19,17.5 C18.1715729,17.5 17.5,16.8284271 17.5,16 C17.5,15.1715729 18.1715729,14.5 19,14.5 Z M24,14.5 C24.8284271,14.5 25.5,15.1715729 25.5,16 C25.5,16.8284271 24.8284271,17.5 24,17.5 C23.1715729,17.5 22.5,16.8284271 22.5,16 C22.5,15.1715729 23.1715729,14.5 24,14.5 Z M4,10 C4.82842712,10 5.5,10.6715729 5.5,11.5 C5.5,12.3284271 4.82842712,13 4,13 C3.17157288,13 2.5,12.3284271 2.5,11.5 C2.5,10.6715729 3.17157288,10 4,10 Z M9,10 C9.82842712,10 10.5,10.6715729 10.5,11.5 C10.5,12.3284271 9.82842712,13 9,13 C8.17157288,13 7.5,12.3284271 7.5,11.5 C7.5,10.6715729 8.17157288,10 9,10 Z M14,10 C14.8284271,10 15.5,10.6715729 15.5,11.5 C15.5,12.3284271 14.8284271,13 14,13 C13.1715729,13 12.5,12.3284271 12.5,11.5 C12.5,10.6715729 13.1715729,10 14,10 Z M19,10 C19.8284271,10 20.5,10.6715729 20.5,11.5 C20.5,12.3284271 19.8284271,13 19,13 C18.1715729,13 17.5,12.3284271 17.5,11.5 C17.5,10.6715729 18.1715729,10 19,10 Z M24,10 C24.8284271,10 25.5,10.6715729 25.5,11.5 C25.5,12.3284271 24.8284271,13 24,13 C23.1715729,13 22.5,12.3284271 22.5,11.5 C22.5,10.6715729 23.1715729,10 24,10 Z" id="形状结合" fill-opacity="0.8" fill="url(#linearGradient-6)"></path>
            <rect id="矩形" stroke-opacity="0.0914690778" stroke="#000000" fill="#FFFFFF" x="4.5" y="-0.5" width="3" height="5" rx="1.5"></rect>
            <rect id="矩形备份-23" stroke-opacity="0.0914690778" stroke="#000000" fill="#FFFFFF" x="20.5" y="-0.5" width="3" height="5" rx="1.5"></rect>
        </g>
    </g>
</svg>